<svg xmlns="http://www.w3.org/2000/svg" viewBox="0 0 260 260" width="32" height="32" role="img">
  <title>Trusted Panama Stays</title>
  <rect x="30" y="130" width="100" height="62" fill="white"/>
  <rect x="130" y="130" width="100" height="62" fill="#cc0000"/>
  <rect x="30" y="192" width="100" height="62" fill="#1a3a6b"/>
  <rect x="130" y="192" width="100" height="62" fill="white"/>
  <rect x="30" y="130" width="200" height="124" fill="none" stroke="#1a3a6b" stroke-width="2"/>
  <polygon points="80,147 82.5,155 91,155 84,160 86.5,168 80,163 73.5,168 76,160 69,155 77.5,155" fill="#1a3a6b"/>
  <polygon points="180,209 182.5,217 191,217 184,222 186.5,230 180,225 173.5,230 176,222 169,217 177.5,217" fill="#cc0000"/>
  <polyline points="5,128 130,16 255,128" fill="none" stroke="#1a3a6b" stroke-width="5" stroke-linecap="round" stroke-linejoin="round"/>
  <path d="M54,138 L98,246 L218,26" fill="none" stroke="#b8860b" stroke-width="20" stroke-linecap="round" stroke-linejoin="round"/>
</svg>
